<svg width="379" height="255" viewBox="0 0 379 255" fill="none" xmlns="http://www.w3.org/2000/svg">
<rect width="379" height="255" fill="#D9D9D9"/>
<path d="M115.116 79.8454C114.656 74.8917 110.477 71 105.405 71C102.671 71 100.197 72.1327 98.4249 73.9514L97.7824 72.5606C97.1927 71.2839 95.6982 70.7033 94.401 71.2498L29.2245 98.6888C28.4289 98.4825 27.5993 98.375 26.7515 98.375C24.9151 98.375 23.1197 98.894 21.5595 99.8764C19.355 101.265 17.8229 103.429 17.2458 105.97C16.6687 108.511 17.1157 111.125 18.5041 113.329C19.938 115.606 22.195 117.147 24.7627 117.678L52.7917 162.179C42.9917 165.041 36.3233 171.385 36.3233 178.93C36.3233 180.371 37.4914 181.539 38.9323 181.539H90.3629C91.8038 181.539 92.9719 180.371 92.9719 178.93C92.9719 169.326 82.1722 161.664 67.854 160.66L36.2266 110.446C36.237 110.402 36.2499 110.358 36.2603 110.314L81.308 91.3691C78.4638 95.8108 76.8093 101.085 76.8093 106.74C76.8093 108.181 77.9775 109.349 79.4184 109.349H131.391C132.832 109.349 134 108.181 134 106.74C134 94.3803 126.117 83.83 115.116 79.8454ZM105.405 76.2181C107.05 76.2181 108.489 77.1014 109.285 78.4153C108.015 78.2421 106.721 78.145 105.405 78.145C104.088 78.145 102.795 78.2421 101.526 78.4153C102.32 77.1014 103.76 76.2181 105.405 76.2181ZM29.1762 111.969C28.4502 112.426 27.6167 112.668 26.7647 112.668C25.1927 112.668 23.7556 111.876 22.9193 110.548C22.2736 109.523 22.066 108.308 22.3342 107.126C22.6024 105.944 23.3148 104.938 24.3404 104.292C25.0664 103.835 25.8999 103.593 26.7515 103.593C28.3232 103.593 29.7606 104.385 30.5972 105.713C31.9303 107.829 31.2926 110.636 29.1762 111.969ZM87.2769 176.321H42.0183C44.211 170.382 53.684 165.763 64.6466 165.763C75.6102 165.764 85.0842 170.382 87.2769 176.321ZM61.675 160.642C60.4978 160.718 59.347 160.844 58.2203 161.007L30.5691 117.105C31.047 116.902 31.5122 116.664 31.9567 116.384C32.4058 116.102 32.8226 115.787 33.2087 115.447L61.675 160.642ZM35.9239 104.795C35.6908 104.155 35.3892 103.53 35.0121 102.932C34.8399 102.658 34.6524 102.399 34.4573 102.147L94.1018 77.0377L95.374 79.7929L65.649 92.294L35.9239 104.795ZM82.1722 104.131C83.4739 92.4649 93.3967 83.3635 105.405 83.3635C117.413 83.3635 127.336 92.4649 128.637 104.131H82.1722Z" fill="#673798"/>
<path d="M105.404 127.385C103.963 127.385 102.795 126.217 102.795 124.776V114.329C102.795 112.888 103.963 111.72 105.404 111.72C106.845 111.72 108.013 112.888 108.013 114.329V124.776C108.013 126.217 106.845 127.385 105.404 127.385Z" fill="#673798"/>
<path d="M86.7583 125.593C86.0903 125.593 85.4224 125.338 84.9131 124.829C83.8942 123.81 83.8942 122.158 84.9131 121.139L93.5676 112.484C94.5865 111.465 96.2385 111.465 97.2571 112.484C98.276 113.503 98.276 115.155 97.2571 116.173L88.6027 124.828C88.0934 125.338 87.4258 125.593 86.7583 125.593Z" fill="#673798"/>
<path d="M124.05 125.592C123.382 125.592 122.714 125.338 122.205 124.828L113.55 116.173C112.531 115.154 112.531 113.502 113.55 112.484C114.569 111.465 116.221 111.465 117.24 112.484L125.894 121.139C126.914 122.158 126.914 123.81 125.894 124.829C125.385 125.338 124.717 125.592 124.05 125.592Z" fill="#673798"/>
<path d="M70.5381 173.652H64.6486C63.2077 173.652 62.0396 172.484 62.0396 171.043C62.0396 169.601 63.2077 168.434 64.6486 168.434H70.5381C71.9794 168.434 73.1472 169.601 73.1472 171.043C73.1472 172.484 71.9794 173.652 70.5381 173.652Z" fill="#673798"/>
<path d="M165.15 102.6H158.85V88C158.85 86.9667 159.15 86.15 159.75 85.55C160.383 84.95 161.217 84.65 162.25 84.65C162.817 84.65 163.367 84.7 163.9 84.8C164.467 84.9 164.883 84.9833 165.15 85.05V102.6ZM162.2 103.05V97.9H177.15C177.317 98.1667 177.467 98.5167 177.6 98.95C177.767 99.3833 177.85 99.85 177.85 100.35C177.85 101.217 177.65 101.883 177.25 102.35C176.85 102.817 176.283 103.05 175.55 103.05H162.2ZM162.25 89.8V84.65H178.85C179.017 84.8833 179.167 85.2333 179.3 85.7C179.467 86.1333 179.55 86.6 179.55 87.1C179.55 87.9667 179.35 88.6333 178.95 89.1C178.55 89.5667 177.983 89.8 177.25 89.8H162.25ZM158.85 98.7H165.2V114.95C164.933 115.017 164.517 115.083 163.95 115.15C163.417 115.25 162.867 115.3 162.3 115.3C161.1 115.3 160.217 115.083 159.65 114.65C159.117 114.183 158.85 113.433 158.85 112.4V98.7ZM185.071 95.15H191.421V114.65L188.471 115.05C187.437 115.05 186.604 114.75 185.971 114.15C185.371 113.517 185.071 112.7 185.071 111.7V95.15ZM188.471 115.05V109.85H204.371C204.571 110.117 204.737 110.467 204.871 110.9C205.037 111.333 205.121 111.817 205.121 112.35C205.121 113.25 204.904 113.933 204.471 114.4C204.071 114.833 203.521 115.05 202.821 115.05H188.471ZM191.421 102.25H185.071V84.65C185.371 84.5833 185.787 84.5 186.321 84.4C186.887 84.3 187.454 84.25 188.021 84.25C189.221 84.25 190.087 84.4667 190.621 84.9C191.154 85.3 191.421 86.0667 191.421 87.2V102.25ZM222.501 89.8H222.251C221.817 91 221.334 92.3667 220.801 93.9C220.301 95.4333 219.767 97.0333 219.201 98.7C218.634 100.333 218.101 101.917 217.601 103.45L216.901 106.55C216.701 107.183 216.484 107.883 216.251 108.65C216.051 109.417 215.817 110.2 215.551 111C215.317 111.767 215.084 112.5 214.851 113.2C214.651 113.9 214.467 114.517 214.301 115.05C213.967 115.15 213.601 115.233 213.201 115.3C212.834 115.4 212.384 115.45 211.851 115.45C210.784 115.45 209.934 115.25 209.301 114.85C208.701 114.417 208.401 113.783 208.401 112.95C208.401 112.583 208.451 112.2 208.551 111.8C208.684 111.4 208.817 110.95 208.951 110.45C209.284 109.35 209.734 107.983 210.301 106.35C210.867 104.683 211.484 102.883 212.151 100.95C212.817 99.0167 213.501 97.0667 214.201 95.1C214.934 93.1333 215.617 91.3 216.251 89.6C216.884 87.8667 217.434 86.4167 217.901 85.25C218.301 85.0167 218.917 84.8 219.751 84.6C220.584 84.4 221.434 84.3 222.301 84.3C223.434 84.3 224.467 84.4667 225.401 84.8C226.367 85.1333 226.967 85.6667 227.201 86.4C227.901 88.2333 228.651 90.3333 229.451 92.7C230.251 95.0667 231.067 97.5333 231.901 100.1C232.734 102.667 233.534 105.167 234.301 107.6C235.067 110.033 235.751 112.233 236.351 114.2C236.017 114.567 235.551 114.867 234.951 115.1C234.384 115.333 233.717 115.45 232.951 115.45C231.851 115.45 231.051 115.25 230.551 114.85C230.084 114.417 229.717 113.767 229.451 112.9L227.401 106.35L226.751 103.15C226.217 101.45 225.684 99.7833 225.151 98.15C224.651 96.4833 224.167 94.9333 223.701 93.5C223.234 92.0667 222.834 90.8333 222.501 89.8ZM214.101 107.75L216.451 102.8H228.951L229.901 107.75H214.101ZM250.122 110.6C252.055 110.6 253.489 110.217 254.422 109.45C255.355 108.65 255.822 107.667 255.822 106.5C255.822 105.467 255.455 104.633 254.722 104C254.022 103.333 252.939 102.783 251.472 102.35L248.222 101.35C246.555 100.783 245.089 100.15 243.822 99.45C242.589 98.75 241.622 97.85 240.922 96.75C240.255 95.6167 239.922 94.2333 239.922 92.6C239.922 89.9 240.922 87.7667 242.922 86.2C244.955 84.6333 247.722 83.85 251.222 83.85C253.089 83.85 254.739 84.05 256.172 84.45C257.639 84.8167 258.789 85.3333 259.622 86C260.489 86.6667 260.922 87.45 260.922 88.35C260.922 88.9833 260.755 89.55 260.422 90.05C260.122 90.5167 259.739 90.9 259.272 91.2C258.505 90.6333 257.455 90.15 256.122 89.75C254.789 89.3167 253.339 89.1 251.772 89.1C250.039 89.1 248.705 89.4167 247.772 90.05C246.839 90.6833 246.372 91.5333 246.372 92.6C246.372 93.4667 246.689 94.1667 247.322 94.7C247.989 95.2333 248.989 95.7 250.322 96.1L253.222 96.95C256.089 97.8167 258.322 99 259.922 100.5C261.522 101.967 262.322 103.983 262.322 106.55C262.322 109.283 261.272 111.5 259.172 113.2C257.105 114.9 254.139 115.75 250.272 115.75C248.239 115.75 246.439 115.533 244.872 115.1C243.305 114.667 242.055 114.067 241.122 113.3C240.222 112.533 239.772 111.667 239.772 110.7C239.772 109.967 240.005 109.333 240.472 108.8C240.939 108.267 241.439 107.867 241.972 107.6C242.839 108.333 243.955 109.017 245.322 109.65C246.689 110.283 248.289 110.6 250.122 110.6ZM268.079 95H274.429V114.9C274.162 115 273.745 115.083 273.179 115.15C272.645 115.25 272.079 115.3 271.479 115.3C270.279 115.3 269.412 115.083 268.879 114.65C268.345 114.183 268.079 113.417 268.079 112.35V95ZM274.429 102.25H268.079V84.65C268.379 84.5833 268.795 84.5 269.329 84.4C269.895 84.3 270.462 84.25 271.029 84.25C272.229 84.25 273.095 84.4667 273.629 84.9C274.162 85.3 274.429 86.0667 274.429 87.2V102.25ZM287.179 95H293.479V114.9C293.212 115 292.795 115.083 292.229 115.15C291.695 115.25 291.145 115.3 290.579 115.3C289.345 115.3 288.462 115.083 287.929 114.65C287.429 114.183 287.179 113.417 287.179 112.35V95ZM293.479 102.25H287.179V84.65C287.445 84.5833 287.845 84.5 288.379 84.4C288.945 84.3 289.512 84.25 290.079 84.25C291.279 84.25 292.145 84.4667 292.679 84.9C293.212 85.3333 293.479 86.1167 293.479 87.25V102.25ZM290.679 102.25H271.179V97.2H290.679V102.25ZM165.15 153.35H169.3C171.267 153.35 172.833 152.917 174 152.05C175.167 151.183 175.75 149.9 175.75 148.2C175.75 146.533 175.167 145.267 174 144.4C172.833 143.533 171.117 143.1 168.85 143.1C168.183 143.1 167.533 143.133 166.9 143.2C166.267 143.233 165.683 143.3 165.15 143.4V153.35ZM169.75 158.3H158.85V141.15C158.85 140.55 159.017 140.083 159.35 139.75C159.717 139.417 160.183 139.15 160.75 138.95C161.817 138.617 163.067 138.367 164.5 138.2C165.967 138.033 167.45 137.95 168.95 137.95C173.35 137.95 176.633 138.867 178.8 140.7C181 142.5 182.1 144.983 182.1 148.15C182.1 150.15 181.583 151.917 180.55 153.45C179.55 154.983 178.133 156.183 176.3 157.05C174.467 157.883 172.283 158.3 169.75 158.3ZM168.9 156.7L174.3 155.15C175.133 156.25 175.983 157.367 176.85 158.5C177.75 159.6 178.6 160.683 179.4 161.75C180.233 162.783 180.967 163.733 181.6 164.6C182.267 165.467 182.783 166.183 183.15 166.75C182.917 167.583 182.467 168.233 181.8 168.7C181.167 169.167 180.467 169.4 179.7 169.4C178.7 169.4 177.917 169.183 177.35 168.75C176.817 168.283 176.3 167.667 175.8 166.9L168.9 156.7ZM158.85 156.1H165.2V168.9C164.933 169 164.517 169.083 163.95 169.15C163.417 169.25 162.85 169.3 162.25 169.3C161.05 169.3 160.183 169.083 159.65 168.65C159.117 168.183 158.85 167.417 158.85 166.35V156.1ZM188.782 148.9H194.982V168.65C194.748 168.717 194.365 168.8 193.832 168.9C193.298 169 192.748 169.05 192.182 169.05C191.148 169.05 190.315 168.75 189.682 168.15C189.082 167.517 188.782 166.7 188.782 165.7V148.9ZM194.982 158.7L188.782 158.65V142C188.782 140.967 189.082 140.15 189.682 139.55C190.315 138.95 191.148 138.65 192.182 138.65C192.748 138.65 193.298 138.7 193.832 138.8C194.365 138.9 194.748 138.983 194.982 139.05V158.7ZM192.182 156V151H207.232C207.398 151.233 207.548 151.567 207.682 152C207.848 152.433 207.932 152.9 207.932 153.4C207.932 154.267 207.732 154.917 207.332 155.35C206.932 155.783 206.382 156 205.682 156H192.182ZM192.182 169.05V164H208.982C209.115 164.233 209.248 164.567 209.382 165C209.548 165.433 209.632 165.917 209.632 166.45C209.632 167.317 209.432 167.967 209.032 168.4C208.632 168.833 208.082 169.05 207.382 169.05H192.182ZM192.182 143.75V138.65H208.732C208.898 138.883 209.048 139.217 209.182 139.65C209.315 140.083 209.382 140.55 209.382 141.05C209.382 141.917 209.182 142.583 208.782 143.05C208.415 143.517 207.865 143.75 207.132 143.75H192.182ZM231.185 168.3C230.885 168.567 230.368 168.8 229.635 169C228.935 169.233 228.151 169.35 227.285 169.35C226.285 169.35 225.418 169.217 224.685 168.95C223.951 168.65 223.451 168.217 223.185 167.65C222.685 166.683 222.085 165.383 221.385 163.75C220.718 162.117 219.985 160.283 219.185 158.25C218.418 156.183 217.651 154.067 216.885 151.9C216.118 149.733 215.401 147.617 214.735 145.55C214.101 143.45 213.551 141.567 213.085 139.9C213.418 139.533 213.901 139.2 214.535 138.9C215.168 138.567 215.851 138.4 216.585 138.4C217.518 138.4 218.251 138.617 218.785 139.05C219.318 139.45 219.718 140.133 219.985 141.1C221.185 144.933 222.368 148.633 223.535 152.2C224.701 155.767 225.935 159.4 227.235 163.1H227.485C228.285 160.8 229.101 158.317 229.935 155.65C230.801 152.983 231.635 150.233 232.435 147.4C233.268 144.567 234.018 141.8 234.685 139.1C235.085 138.9 235.518 138.733 235.985 138.6C236.485 138.467 237.018 138.4 237.585 138.4C238.485 138.4 239.235 138.617 239.835 139.05C240.468 139.483 240.785 140.15 240.785 141.05C240.785 141.65 240.601 142.65 240.235 144.05C239.901 145.417 239.435 147.017 238.835 148.85C238.235 150.683 237.585 152.583 236.885 154.55C236.185 156.517 235.468 158.433 234.735 160.3C234.001 162.133 233.318 163.767 232.685 165.2C232.085 166.6 231.585 167.633 231.185 168.3ZM246.156 148.95H252.456V168.9C252.189 169 251.789 169.083 251.256 169.15C250.723 169.25 250.156 169.3 249.556 169.3C248.356 169.3 247.489 169.083 246.956 168.65C246.423 168.183 246.156 167.417 246.156 166.35V148.95ZM252.456 156.25H246.156V138.65C246.423 138.583 246.839 138.5 247.406 138.4C247.973 138.3 248.539 138.25 249.106 138.25C250.273 138.25 251.123 138.467 251.656 138.9C252.189 139.3 252.456 140.067 252.456 141.2V156.25ZM269.116 164.6C271.049 164.6 272.483 164.217 273.416 163.45C274.349 162.65 274.816 161.667 274.816 160.5C274.816 159.467 274.449 158.633 273.716 158C273.016 157.333 271.933 156.783 270.466 156.35L267.216 155.35C265.549 154.783 264.083 154.15 262.816 153.45C261.583 152.75 260.616 151.85 259.916 150.75C259.249 149.617 258.916 148.233 258.916 146.6C258.916 143.9 259.916 141.767 261.916 140.2C263.949 138.633 266.716 137.85 270.216 137.85C272.083 137.85 273.733 138.05 275.166 138.45C276.633 138.817 277.783 139.333 278.616 140C279.483 140.667 279.916 141.45 279.916 142.35C279.916 142.983 279.749 143.55 279.416 144.05C279.116 144.517 278.733 144.9 278.266 145.2C277.499 144.633 276.449 144.15 275.116 143.75C273.783 143.317 272.333 143.1 270.766 143.1C269.033 143.1 267.699 143.417 266.766 144.05C265.833 144.683 265.366 145.533 265.366 146.6C265.366 147.467 265.683 148.167 266.316 148.7C266.983 149.233 267.983 149.7 269.316 150.1L272.216 150.95C275.083 151.817 277.316 153 278.916 154.5C280.516 155.967 281.316 157.983 281.316 160.55C281.316 163.283 280.266 165.5 278.166 167.2C276.099 168.9 273.133 169.75 269.266 169.75C267.233 169.75 265.433 169.533 263.866 169.1C262.299 168.667 261.049 168.067 260.116 167.3C259.216 166.533 258.766 165.667 258.766 164.7C258.766 163.967 258.999 163.333 259.466 162.8C259.933 162.267 260.433 161.867 260.966 161.6C261.833 162.333 262.949 163.017 264.316 163.65C265.683 164.283 267.283 164.6 269.116 164.6ZM287.123 148.95H293.423V168.9C293.156 169 292.756 169.083 292.223 169.15C291.689 169.25 291.123 169.3 290.523 169.3C289.323 169.3 288.456 169.083 287.923 168.65C287.389 168.183 287.123 167.417 287.123 166.35V148.95ZM293.423 156.25H287.123V138.65C287.389 138.583 287.806 138.5 288.373 138.4C288.939 138.3 289.506 138.25 290.073 138.25C291.239 138.25 292.089 138.467 292.623 138.9C293.156 139.3 293.423 140.067 293.423 141.2V156.25ZM329.883 153.8C329.883 157.267 329.216 160.183 327.883 162.55C326.583 164.917 324.783 166.717 322.483 167.95C320.216 169.15 317.633 169.75 314.733 169.75C311.866 169.75 309.283 169.15 306.983 167.95C304.716 166.717 302.916 164.917 301.583 162.55C300.283 160.183 299.633 157.267 299.633 153.8C299.633 150.333 300.299 147.417 301.633 145.05C302.999 142.683 304.816 140.9 307.083 139.7C309.383 138.467 311.933 137.85 314.733 137.85C317.599 137.85 320.166 138.467 322.433 139.7C324.733 140.9 326.549 142.683 327.883 145.05C329.216 147.417 329.883 150.333 329.883 153.8ZM323.433 153.8C323.433 150.3 322.633 147.633 321.033 145.8C319.466 143.967 317.366 143.05 314.733 143.05C312.166 143.05 310.083 143.967 308.483 145.8C306.916 147.633 306.133 150.3 306.133 153.8C306.133 157.333 306.916 160.017 308.483 161.85C310.049 163.683 312.149 164.6 314.783 164.6C317.416 164.6 319.516 163.683 321.083 161.85C322.649 160.017 323.433 157.333 323.433 153.8ZM336.047 145.4L341.697 145.25C341.831 146.517 341.931 147.85 341.997 149.25C342.097 150.65 342.147 152.033 342.147 153.4C342.181 154.767 342.197 156.083 342.197 157.35V168.95C341.964 169.017 341.564 169.083 340.997 169.15C340.464 169.25 339.931 169.3 339.397 169.3C338.197 169.3 337.331 169.1 336.797 168.7C336.297 168.267 336.047 167.517 336.047 166.45V145.4ZM361.797 162.15L356.097 162.3C355.831 159.733 355.681 157.233 355.647 154.8C355.614 152.333 355.597 149.95 355.597 147.65V138.65C355.897 138.583 356.297 138.5 356.797 138.4C357.331 138.3 357.897 138.25 358.497 138.25C359.664 138.25 360.497 138.467 360.997 138.9C361.531 139.333 361.797 140.067 361.797 141.1V162.15ZM361.797 160.1V156.95V168.2C361.397 168.533 360.864 168.8 360.197 169C359.531 169.233 358.764 169.35 357.897 169.35C356.864 169.35 355.931 169.183 355.097 168.85C354.297 168.517 353.614 167.783 353.047 166.65L345.697 153.5C345.297 152.7 344.864 151.867 344.397 151C343.964 150.133 343.547 149.283 343.147 148.45C342.747 147.617 342.381 146.85 342.047 146.15L336.047 147.55V139.7C336.414 139.233 336.947 138.883 337.647 138.65C338.381 138.417 339.164 138.3 339.997 138.3C340.997 138.3 341.914 138.467 342.747 138.8C343.581 139.133 344.281 139.85 344.847 140.95L352.197 154.1C352.631 154.9 353.064 155.733 353.497 156.6C353.964 157.467 354.381 158.317 354.747 159.15C355.147 159.983 355.497 160.75 355.797 161.45L361.797 160.1Z" fill="url(#paint0_linear_135_20)"/>
<defs>
<linearGradient id="paint0_linear_135_20" x1="167.765" y1="102.262" x2="366.318" y2="167.662" gradientUnits="userSpaceOnUse">
<stop offset="0.22443" stop-color="#541890"/>
<stop offset="0.770193" stop-color="#847791"/>
</linearGradient>
</defs>
</svg>
