<svg width="1479" height="552" viewBox="0 0 1479 552" fill="none" xmlns="http://www.w3.org/2000/svg">
<path d="M489.455 44.1257C487.161 19.4138 466.316 0 441.014 0C427.372 0 415.03 5.65043 406.191 14.723L402.986 7.78496C400.045 1.41608 392.589 -1.48029 386.118 1.24601L60.9826 138.127C57.0137 137.097 52.8748 136.561 48.6457 136.561C39.4846 136.561 30.5282 139.15 22.745 144.051C11.7478 150.979 4.10519 161.775 1.22618 174.45C-1.65283 187.127 0.577147 200.163 7.50308 211.16C14.6564 222.517 25.9156 230.206 38.7245 232.856L178.548 454.851C129.661 469.128 96.3949 500.774 96.3949 538.411C96.3949 545.599 102.222 551.427 109.41 551.427H365.974C373.162 551.427 378.989 545.599 378.989 538.411C378.989 490.502 325.114 452.282 253.687 447.272L95.9125 196.779C95.9645 196.559 96.0287 196.34 96.0808 196.118L320.803 101.612C306.615 123.77 298.361 150.08 298.361 178.29C298.361 185.48 304.189 191.306 311.377 191.306H570.644C577.832 191.306 583.659 185.48 583.659 178.29C583.661 116.634 544.337 64.0029 489.455 44.1257ZM441.012 26.0308C449.219 26.0308 456.396 30.437 460.365 36.9916C454.031 36.1273 447.577 35.6432 441.012 35.6432C434.443 35.6432 427.99 36.1273 421.659 36.9916C425.624 30.437 432.804 26.0308 441.012 26.0308ZM60.7413 204.375C57.1196 206.655 52.9616 207.861 48.7116 207.861C40.8694 207.861 33.7005 203.91 29.5286 197.288C26.3078 192.173 25.2717 186.112 26.6097 180.217C27.9477 174.322 31.5018 169.299 36.6177 166.078C40.2395 163.798 44.3974 162.592 48.6457 162.592C56.4862 162.592 63.6568 166.544 67.8304 173.166C74.4804 183.724 71.2994 197.725 60.7413 204.375ZM350.579 525.396H124.805C135.743 495.773 182.999 472.73 237.687 472.73C292.379 472.732 339.641 495.773 350.579 525.396ZM222.863 447.18C216.991 447.562 211.25 448.189 205.629 449.006L67.6898 229.998C70.0743 228.985 72.3945 227.798 74.6123 226.402C76.8527 224.991 78.9317 223.421 80.858 221.725L222.863 447.18ZM94.4027 168.588C93.24 165.396 91.7354 162.28 89.8542 159.293C88.9952 157.929 88.0598 156.636 87.0863 155.38L384.626 30.1194L390.972 43.8637L242.687 106.226L94.4027 168.588ZM325.114 165.277C331.608 107.079 381.108 61.6757 441.012 61.6757C500.916 61.6757 550.416 107.079 556.906 165.277H325.114Z" fill="#673798"/>
<path d="M441.009 281.279C433.819 281.279 427.993 275.453 427.993 268.264V216.148C427.993 208.959 433.819 203.133 441.009 203.133C448.197 203.133 454.024 208.959 454.024 216.148V268.264C454.024 275.453 448.197 281.279 441.009 281.279Z" fill="#673798"/>
<path d="M347.992 272.339C344.66 272.339 341.328 271.069 338.788 268.528C333.705 263.445 333.705 255.204 338.788 250.121L381.961 206.946C387.044 201.861 395.285 201.863 400.366 206.944C405.449 212.027 405.449 220.268 400.366 225.35L357.193 268.524C354.653 271.069 351.323 272.339 347.992 272.339Z" fill="#673798"/>
<path d="M534.022 272.337C530.69 272.337 527.358 271.067 524.818 268.524L481.645 225.35C476.56 220.267 476.56 212.025 481.645 206.944C486.729 201.861 494.969 201.863 500.052 206.946L543.225 250.121C548.31 255.204 548.31 263.445 543.225 268.528C540.683 271.067 537.351 272.337 534.022 272.337Z" fill="#673798"/>
<path d="M267.079 512.083H237.699C230.511 512.083 224.684 506.257 224.684 499.067C224.684 491.877 230.511 486.052 237.699 486.052H267.079C274.269 486.052 280.095 491.877 280.095 499.067C280.095 506.257 274.269 512.083 267.079 512.083Z" fill="#673798"/>
<path d="M676.6 201.4H651.4V143C651.4 138.867 652.6 135.6 655 133.2C657.533 130.8 660.867 129.6 665 129.6C667.267 129.6 669.467 129.8 671.6 130.2C673.867 130.6 675.533 130.933 676.6 131.2V201.4ZM664.8 203.2V182.6H724.6C725.267 183.667 725.867 185.067 726.4 186.8C727.067 188.533 727.4 190.4 727.4 192.4C727.4 195.867 726.6 198.533 725 200.4C723.4 202.267 721.133 203.2 718.2 203.2H664.8ZM665 150.2V129.6H731.4C732.067 130.533 732.667 131.933 733.2 133.8C733.867 135.533 734.2 137.4 734.2 139.4C734.2 142.867 733.4 145.533 731.8 147.4C730.2 149.267 727.933 150.2 725 150.2H665ZM651.4 185.8H676.8V250.8C675.733 251.067 674.067 251.333 671.8 251.6C669.667 252 667.467 252.2 665.2 252.2C660.4 252.2 656.867 251.333 654.6 249.6C652.467 247.733 651.4 244.733 651.4 240.6V185.8ZM756.283 171.6H781.683V249.6L769.883 251.2C765.749 251.2 762.416 250 759.883 247.6C757.483 245.067 756.283 241.8 756.283 237.8V171.6ZM769.883 251.2V230.4H833.483C834.283 231.467 834.949 232.867 835.483 234.6C836.149 236.333 836.483 238.267 836.483 240.4C836.483 244 835.616 246.733 833.883 248.6C832.283 250.333 830.083 251.2 827.283 251.2H769.883ZM781.683 200H756.283V129.6C757.483 129.333 759.149 129 761.283 128.6C763.549 128.2 765.816 128 768.083 128C772.883 128 776.349 128.867 778.483 130.6C780.616 132.2 781.683 135.267 781.683 139.8V200ZM906.003 150.2H905.003C903.27 155 901.336 160.467 899.203 166.6C897.203 172.733 895.07 179.133 892.803 185.8C890.536 192.333 888.403 198.667 886.403 204.8L883.603 217.2C882.803 219.733 881.936 222.533 881.003 225.6C880.203 228.667 879.27 231.8 878.203 235C877.27 238.067 876.336 241 875.403 243.8C874.603 246.6 873.87 249.067 873.203 251.2C871.87 251.6 870.403 251.933 868.803 252.2C867.336 252.6 865.536 252.8 863.403 252.8C859.136 252.8 855.736 252 853.203 250.4C850.803 248.667 849.603 246.133 849.603 242.8C849.603 241.333 849.803 239.8 850.203 238.2C850.736 236.6 851.27 234.8 851.803 232.8C853.136 228.4 854.936 222.933 857.203 216.4C859.47 209.733 861.936 202.533 864.603 194.8C867.27 187.067 870.003 179.267 872.803 171.4C875.736 163.533 878.47 156.2 881.003 149.4C883.536 142.467 885.736 136.667 887.603 132C889.203 131.067 891.67 130.2 895.003 129.4C898.336 128.6 901.736 128.2 905.203 128.2C909.736 128.2 913.87 128.867 917.603 130.2C921.47 131.533 923.87 133.667 924.803 136.6C927.603 143.933 930.603 152.333 933.803 161.8C937.003 171.267 940.27 181.133 943.603 191.4C946.936 201.667 950.136 211.667 953.203 221.4C956.27 231.133 959.003 239.933 961.403 247.8C960.07 249.267 958.203 250.467 955.803 251.4C953.536 252.333 950.87 252.8 947.803 252.8C943.403 252.8 940.203 252 938.203 250.4C936.336 248.667 934.87 246.067 933.803 242.6L925.603 216.4L923.003 203.6C920.87 196.8 918.736 190.133 916.603 183.6C914.603 176.933 912.67 170.733 910.803 165C908.936 159.267 907.336 154.333 906.003 150.2ZM872.403 222L881.803 202.2H931.803L935.603 222H872.403ZM1016.49 233.4C1024.22 233.4 1029.95 231.867 1033.69 228.8C1037.42 225.6 1039.29 221.667 1039.29 217C1039.29 212.867 1037.82 209.533 1034.89 207C1032.09 204.333 1027.75 202.133 1021.89 200.4L1008.89 196.4C1002.22 194.133 996.354 191.6 991.288 188.8C986.354 186 982.488 182.4 979.688 178C977.021 173.467 975.688 167.933 975.688 161.4C975.688 150.6 979.688 142.067 987.688 135.8C995.821 129.533 1006.89 126.4 1020.89 126.4C1028.35 126.4 1034.95 127.2 1040.69 128.8C1046.55 130.267 1051.15 132.333 1054.49 135C1057.95 137.667 1059.69 140.8 1059.69 144.4C1059.69 146.933 1059.02 149.2 1057.69 151.2C1056.49 153.067 1054.95 154.6 1053.09 155.8C1050.02 153.533 1045.82 151.6 1040.49 150C1035.15 148.267 1029.35 147.4 1023.09 147.4C1016.15 147.4 1010.82 148.667 1007.09 151.2C1003.35 153.733 1001.49 157.133 1001.49 161.4C1001.49 164.867 1002.75 167.667 1005.29 169.8C1007.95 171.933 1011.95 173.8 1017.29 175.4L1028.89 178.8C1040.35 182.267 1049.29 187 1055.69 193C1062.09 198.867 1065.29 206.933 1065.29 217.2C1065.29 228.133 1061.09 237 1052.69 243.8C1044.42 250.6 1032.55 254 1017.09 254C1008.95 254 1001.75 253.133 995.488 251.4C989.221 249.667 984.221 247.267 980.488 244.2C976.888 241.133 975.088 237.667 975.088 233.8C975.088 230.867 976.021 228.333 977.888 226.2C979.754 224.067 981.754 222.467 983.888 221.4C987.354 224.333 991.821 227.067 997.288 229.6C1002.75 232.133 1009.15 233.4 1016.49 233.4ZM1088.31 171H1113.71V250.6C1112.65 251 1110.98 251.333 1108.71 251.6C1106.58 252 1104.31 252.2 1101.91 252.2C1097.11 252.2 1093.65 251.333 1091.51 249.6C1089.38 247.733 1088.31 244.667 1088.31 240.4V171ZM1113.71 200H1088.31V129.6C1089.51 129.333 1091.18 129 1093.31 128.6C1095.58 128.2 1097.85 128 1100.11 128C1104.91 128 1108.38 128.867 1110.51 130.6C1112.65 132.2 1113.71 135.267 1113.71 139.8V200ZM1164.71 171H1189.91V250.6C1188.85 251 1187.18 251.333 1184.91 251.6C1182.78 252 1180.58 252.2 1178.31 252.2C1173.38 252.2 1169.85 251.333 1167.71 249.6C1165.71 247.733 1164.71 244.667 1164.71 240.4V171ZM1189.91 200H1164.71V129.6C1165.78 129.333 1167.38 129 1169.51 128.6C1171.78 128.2 1174.05 128 1176.31 128C1181.11 128 1184.58 128.867 1186.71 130.6C1188.85 132.333 1189.91 135.467 1189.91 140V200ZM1178.71 200H1100.71V179.8H1178.71V200ZM676.6 402.4H693.2C701.067 402.4 707.333 400.667 712 397.2C716.667 393.733 719 388.6 719 381.8C719 375.133 716.667 370.067 712 366.6C707.333 363.133 700.467 361.4 691.4 361.4C688.733 361.4 686.133 361.533 683.6 361.8C681.067 361.933 678.733 362.2 676.6 362.6V402.4ZM695 422.2H651.4V353.6C651.4 351.2 652.067 349.333 653.4 348C654.867 346.667 656.733 345.6 659 344.8C663.267 343.467 668.267 342.467 674 341.8C679.867 341.133 685.8 340.8 691.8 340.8C709.4 340.8 722.533 344.467 731.2 351.8C740 359 744.4 368.933 744.4 381.6C744.4 389.6 742.333 396.667 738.2 402.8C734.2 408.933 728.533 413.733 721.2 417.2C713.867 420.533 705.133 422.2 695 422.2ZM691.6 415.8L713.2 409.6C716.533 414 719.933 418.467 723.4 423C727 427.4 730.4 431.733 733.6 436C736.933 440.133 739.867 443.933 742.4 447.4C745.067 450.867 747.133 453.733 748.6 456C747.667 459.333 745.867 461.933 743.2 463.8C740.667 465.667 737.867 466.6 734.8 466.6C730.8 466.6 727.667 465.733 725.4 464C723.267 462.133 721.2 459.667 719.2 456.6L691.6 415.8ZM651.4 413.4H676.8V464.6C675.733 465 674.067 465.333 671.8 465.6C669.667 466 667.4 466.2 665 466.2C660.2 466.2 656.733 465.333 654.6 463.6C652.467 461.733 651.4 458.667 651.4 454.4V413.4ZM771.127 384.6H795.927V463.6C794.993 463.867 793.46 464.2 791.327 464.6C789.193 465 786.993 465.2 784.727 465.2C780.593 465.2 777.26 464 774.727 461.6C772.327 459.067 771.127 455.8 771.127 451.8V384.6ZM795.927 423.8L771.127 423.6V357C771.127 352.867 772.327 349.6 774.727 347.2C777.26 344.8 780.593 343.6 784.727 343.6C786.993 343.6 789.193 343.8 791.327 344.2C793.46 344.6 794.993 344.933 795.927 345.2V423.8ZM784.727 413V393H844.927C845.593 393.933 846.193 395.267 846.727 397C847.393 398.733 847.727 400.6 847.727 402.6C847.727 406.067 846.927 408.667 845.327 410.4C843.727 412.133 841.527 413 838.727 413H784.727ZM784.727 465.2V445H851.927C852.46 445.933 852.993 447.267 853.527 449C854.193 450.733 854.527 452.667 854.527 454.8C854.527 458.267 853.727 460.867 852.127 462.6C850.527 464.333 848.327 465.2 845.527 465.2H784.727ZM784.727 364V343.6H850.927C851.593 344.533 852.193 345.867 852.727 347.6C853.26 349.333 853.527 351.2 853.527 353.2C853.527 356.667 852.727 359.333 851.127 361.2C849.66 363.067 847.46 364 844.527 364H784.727ZM940.739 462.2C939.539 463.267 937.472 464.2 934.539 465C931.739 465.933 928.606 466.4 925.139 466.4C921.139 466.4 917.672 465.867 914.739 464.8C911.806 463.6 909.806 461.867 908.739 459.6C906.739 455.733 904.339 450.533 901.539 444C898.872 437.467 895.939 430.133 892.739 422C889.672 413.733 886.606 405.267 883.539 396.6C880.472 387.933 877.606 379.467 874.939 371.2C872.406 362.8 870.206 355.267 868.339 348.6C869.672 347.133 871.606 345.8 874.139 344.6C876.672 343.267 879.406 342.6 882.339 342.6C886.072 342.6 889.006 343.467 891.139 345.2C893.272 346.8 894.872 349.533 895.939 353.4C900.739 368.733 905.472 383.533 910.139 397.8C914.806 412.067 919.739 426.6 924.939 441.4H925.939C929.139 432.2 932.406 422.267 935.739 411.6C939.206 400.933 942.539 389.933 945.739 378.6C949.072 367.267 952.072 356.2 954.739 345.4C956.339 344.6 958.072 343.933 959.939 343.4C961.939 342.867 964.072 342.6 966.339 342.6C969.939 342.6 972.939 343.467 975.339 345.2C977.872 346.933 979.139 349.6 979.139 353.2C979.139 355.6 978.406 359.6 976.939 365.2C975.606 370.667 973.739 377.067 971.339 384.4C968.939 391.733 966.339 399.333 963.539 407.2C960.739 415.067 957.872 422.733 954.939 430.2C952.006 437.533 949.272 444.067 946.739 449.8C944.339 455.4 942.339 459.533 940.739 462.2ZM1000.62 384.8H1025.82V464.6C1024.76 465 1023.16 465.333 1021.02 465.6C1018.89 466 1016.62 466.2 1014.22 466.2C1009.42 466.2 1005.96 465.333 1003.82 463.6C1001.69 461.733 1000.62 458.667 1000.62 454.4V384.8ZM1025.82 414H1000.62V343.6C1001.69 343.333 1003.36 343 1005.62 342.6C1007.89 342.2 1010.16 342 1012.42 342C1017.09 342 1020.49 342.867 1022.62 344.6C1024.76 346.2 1025.82 349.267 1025.82 353.8V414ZM1092.46 447.4C1100.2 447.4 1105.93 445.867 1109.66 442.8C1113.4 439.6 1115.26 435.667 1115.26 431C1115.26 426.867 1113.8 423.533 1110.86 421C1108.06 418.333 1103.73 416.133 1097.86 414.4L1084.86 410.4C1078.2 408.133 1072.33 405.6 1067.26 402.8C1062.33 400 1058.46 396.4 1055.66 392C1053 387.467 1051.66 381.933 1051.66 375.4C1051.66 364.6 1055.66 356.067 1063.66 349.8C1071.8 343.533 1082.86 340.4 1096.86 340.4C1104.33 340.4 1110.93 341.2 1116.66 342.8C1122.53 344.267 1127.13 346.333 1130.46 349C1133.93 351.667 1135.66 354.8 1135.66 358.4C1135.66 360.933 1135 363.2 1133.66 365.2C1132.46 367.067 1130.93 368.6 1129.06 369.8C1126 367.533 1121.8 365.6 1116.46 364C1111.13 362.267 1105.33 361.4 1099.06 361.4C1092.13 361.4 1086.8 362.667 1083.06 365.2C1079.33 367.733 1077.46 371.133 1077.46 375.4C1077.46 378.867 1078.73 381.667 1081.26 383.8C1083.93 385.933 1087.93 387.8 1093.26 389.4L1104.86 392.8C1116.33 396.267 1125.26 401 1131.66 407C1138.06 412.867 1141.26 420.933 1141.26 431.2C1141.26 442.133 1137.06 451 1128.66 457.8C1120.4 464.6 1108.53 468 1093.06 468C1084.93 468 1077.73 467.133 1071.46 465.4C1065.2 463.667 1060.2 461.267 1056.46 458.2C1052.86 455.133 1051.06 451.667 1051.06 447.8C1051.06 444.867 1052 442.333 1053.86 440.2C1055.73 438.067 1057.73 436.467 1059.86 435.4C1063.33 438.333 1067.8 441.067 1073.26 443.6C1078.73 446.133 1085.13 447.4 1092.46 447.4ZM1164.49 384.8H1189.69V464.6C1188.62 465 1187.02 465.333 1184.89 465.6C1182.76 466 1180.49 466.2 1178.09 466.2C1173.29 466.2 1169.82 465.333 1167.69 463.6C1165.56 461.733 1164.49 458.667 1164.49 454.4V384.8ZM1189.69 414H1164.49V343.6C1165.56 343.333 1167.22 343 1169.49 342.6C1171.76 342.2 1174.02 342 1176.29 342C1180.96 342 1184.36 342.867 1186.49 344.6C1188.62 346.2 1189.69 349.267 1189.69 353.8V414ZM1335.53 404.2C1335.53 418.067 1332.86 429.733 1327.53 439.2C1322.33 448.667 1315.13 455.867 1305.93 460.8C1296.86 465.6 1286.53 468 1274.93 468C1263.46 468 1253.13 465.6 1243.93 460.8C1234.86 455.867 1227.66 448.667 1222.33 439.2C1217.13 429.733 1214.53 418.067 1214.53 404.2C1214.53 390.333 1217.2 378.667 1222.53 369.2C1228 359.733 1235.26 352.6 1244.33 347.8C1253.53 342.867 1263.73 340.4 1274.93 340.4C1286.4 340.4 1296.66 342.867 1305.73 347.8C1314.93 352.6 1322.2 359.733 1327.53 369.2C1332.86 378.667 1335.53 390.333 1335.53 404.2ZM1309.73 404.2C1309.73 390.2 1306.53 379.533 1300.13 372.2C1293.86 364.867 1285.46 361.2 1274.93 361.2C1264.66 361.2 1256.33 364.867 1249.93 372.2C1243.66 379.533 1240.53 390.2 1240.53 404.2C1240.53 418.333 1243.66 429.067 1249.93 436.4C1256.2 443.733 1264.6 447.4 1275.13 447.4C1285.66 447.4 1294.06 443.733 1300.33 436.4C1306.6 429.067 1309.73 418.333 1309.73 404.2ZM1360.19 370.6L1382.79 370C1383.32 375.067 1383.72 380.4 1383.99 386C1384.39 391.6 1384.59 397.133 1384.59 402.6C1384.72 408.067 1384.79 413.333 1384.79 418.4V464.8C1383.86 465.067 1382.26 465.333 1379.99 465.6C1377.86 466 1375.72 466.2 1373.59 466.2C1368.79 466.2 1365.32 465.4 1363.19 463.8C1361.19 462.067 1360.19 459.067 1360.19 454.8V370.6ZM1463.19 437.6L1440.39 438.2C1439.32 427.933 1438.72 417.933 1438.59 408.2C1438.46 398.333 1438.39 388.8 1438.39 379.6V343.6C1439.59 343.333 1441.19 343 1443.19 342.6C1445.32 342.2 1447.59 342 1449.99 342C1454.66 342 1457.99 342.867 1459.99 344.6C1462.12 346.333 1463.19 349.267 1463.19 353.4V437.6ZM1463.19 429.4V416.8V461.8C1461.59 463.133 1459.46 464.2 1456.79 465C1454.12 465.933 1451.06 466.4 1447.59 466.4C1443.46 466.4 1439.72 465.733 1436.39 464.4C1433.19 463.067 1430.46 460.133 1428.19 455.6L1398.79 403C1397.19 399.8 1395.46 396.467 1393.59 393C1391.86 389.533 1390.19 386.133 1388.59 382.8C1386.99 379.467 1385.52 376.4 1384.19 373.6L1360.19 379.2V347.8C1361.66 345.933 1363.79 344.533 1366.59 343.6C1369.52 342.667 1372.66 342.2 1375.99 342.2C1379.99 342.2 1383.66 342.867 1386.99 344.2C1390.32 345.533 1393.12 348.4 1395.39 352.8L1424.79 405.4C1426.52 408.6 1428.26 411.933 1429.99 415.4C1431.86 418.867 1433.52 422.267 1434.99 425.6C1436.59 428.933 1437.99 432 1439.19 434.8L1463.19 429.4Z" fill="url(#paint0_linear_100_28)"/>
<defs>
<linearGradient id="paint0_linear_100_28" x1="687" y1="202" x2="1479" y2="465" gradientUnits="userSpaceOnUse">
<stop offset="0.22443" stop-color="#541890"/>
<stop offset="0.770193" stop-color="#847791"/>
</linearGradient>
</defs>
</svg>
